<svg xmlns="http://www.w3.org/2000/svg" viewBox="0 0 24 24">
  <path d="M8.81 19.38H10v-2.75H8.81c-.37 0-1 .56-1 1.37s.63 1.38 1 1.38M7.5 9.57c0 1-.24 2.51-1.8 2.86a2 2 0 0 1-.56.06C3.68 12.46 3.02 10.83 3 9.7a2 2 0 0 1 .04-.49S3.29 6.66 5 6.51h.18c1.26.01 2.17 1.45 2.27 2.29a6 6 0 0 1 .05.78M12 5c0 1.66-1 3-2.25 3S7.5 6.66 7.5 5s1-3 2.25-3S12 3.34 12 5m3.08 3.5-.32-.02C13.42 8.3 13 7.15 13 5.88q0-.28.03-.56c.12-1.2 1.48-3.06 2.57-2.8.98.24 1.9 1.53 1.9 2.75q0 .19-.03.37c-.18 1.22-1.04 2.8-2.39 2.86m3.54-.5c1.87 0 2.37 1.93 2.37 2.57v.36c.02.97-.05 3.02-2.07 3.07h-.13c-2.2-.01-2.3-1.69-2.3-2.89 0-1.29.26-3.11 2.13-3.11m-.72 7.55.15.13c.84.75 1.45 1.45 1.45 2.76 0 1.37-.6 3.56-3.51 3.56a9 9 0 0 1-1.88-.23c-.68-.13-1.4-.27-2.36-.27-.65 0-1.1.1-1.6.21q-1.27.3-2.57.29C5.88 22 4 20.94 4 18.31c0-2.05 1.7-3.29 2.29-3.73l.14-.1c1.08-.86 1.5-1.36 2.54-2.84.72-1.01 1.45-1.64 2.78-1.64 1.21 0 2.03.68 2.97 2a18 18 0 0 0 3.19 3.55zM10 15.5H8.5c-1.06.19-2 1.12-2 2.44V18a2.46 2.46 0 0 0 2 2.5h2.81v-7H10zm2 3.75s0 .94 1.31 1.25h3.19v-5h-1.31v3.75h-1.38s-.43-.07-.5-.37V15.5H12z"/>
</svg>
