<svg xmlns="http://www.w3.org/2000/svg" viewBox="0 0 24 24">
  <path d="M11.37 7.35c.23-.03.4-.31.38-.62s-.23-.54-.47-.51-.4.31-.38.62.23.54.47.51m1.86-.52c.05-.09.37-.54 1.04-.38.18.04.26.11.28.13q.04.06.01.16c-.05.14-.16.14-.21.11l-.01-.01c-.09-.05-.52-.29-.92.15q-.05.05-.13 0-.1-.08-.04-.17m4.86 3.63v.08l.8 2.02q.32.84.6 1.7c.76 2.46.51 3.48.33 3.5-.4.05-1.56-1.85-1.56-1.85 0 1.1-.56 2.54-1.78 3.58.46.14 1.01.36 1.37.63.32.24.28.48.22.58-.25.43-4.37.28-5.56.14-1.19.14-5.31.29-5.56-.14-.06-.1-.1-.34.22-.58a5 5 0 0 1 1.37-.63 5 5 0 0 1-1.78-3.58s-1.16 1.9-1.56 1.85c-.19-.02-.43-1.04.33-3.5q.27-.86.6-1.7l.8-2.02v-.08l-.01-.54C6.91 6.47 8.52 3 12.5 3s5.59 3.47 5.59 6.93l-.01.54m-2.17-1.2-.01-.06c-.14-.32-1.6-.68-3.39-.68h-.02c-1.8 0-3.25.36-3.39.68l-.01.04q0 .04.02.06a6 6 0 0 0 3.38 1.06h.02a6 6 0 0 0 3.38-1.06l.02-.05m-5.86-2.55c.03.79.49 1.41 1.03 1.38.54-.02.95-.68.92-1.47s-.49-1.41-1.03-1.39-.95.69-.92 1.47m2.94-.09c-.03.79.38 1.45.92 1.47s1-.6 1.03-1.38c.03-.79-.38-1.45-.92-1.47s-1 .6-1.03 1.39m-4.01 6.63-.71-.13q-.18 1.05-.11 2.57c.16 2.76 1.79 4.49 4.29 4.52h.1c2.51-.03 4.13-1.76 4.29-4.52q.07-1.52-.11-2.57c-1.46.29-2.98.46-4.22.45h-.02q-.5 0-1.04-.03v2.42c-1.23.17-2.47-.08-2.47-.08z"/>
</svg>
