<svg xmlns="http://www.w3.org/2000/svg" viewBox="0 0 24 24">
  <path d="M13.18 12.67 9.6 15.48c-.48.37-.86.17-.86-.44V8.96c0-.61.39-.81.86-.44l3.59 2.8c.47.37.47.99-.01 1.35m8.07 1.19c-3.71 3.65-8.51 5.87-11.43 6.98a2.4 2.4 0 0 1-3.2-1.88l-.04-.23c2.7-.86 7.05-2.55 10.42-5.31.95-.77.92-2.06-.07-2.8A38 38 0 0 0 6.56 5.26l.03-.21a2.4 2.4 0 0 1 3.26-1.88 40 40 0 0 1 11.32 7.04 2.5 2.5 0 0 1 .07 3.65M6.58 18.74l-.1.03c-1.29.41-2.71-.28-2.94-1.44a27 27 0 0 1-.02-10.64c.23-1.19 1.69-1.89 3-1.44l.04.02c-.47 3-.9 7.92.02 13.47"/>
</svg>
