<svg xmlns="http://www.w3.org/2000/svg" xmlns:xlink="http://www.w3.org/1999/xlink" version="1.1" id="Layer_1" viewBox="0 0 473.677 473.677" xml:space="preserve">
<path style="fill:#6BBDC6;" d="M236.838,0C158.625,0,89.29,37.934,46.165,96.384l0.744-0.157l10.123-6.327l4.431-5.695l4.428-2.532  l7.591,1.264l9.491-3.164l3.799-0.632l5.063,2.532l5.523,3.822c1.144-1.754,2.995-3.994,4.6-3.194  c2.528,1.264,3.796,5.063,5.063,7.595c1.264,2.528,3.164,8.223,5.063,10.755c1.9,2.532,7.591,5.063,7.591,5.063l5.692,9.495  c0,0,3.556,4.618,5.336,8.799c-0.037-0.505-0.06-1.077-0.06-1.84l2.812,1.522l10.265-3.422c0,0,9.491-6.959,11.391-6.959  c1.896,0,6.956-0.632,8.855,0.636c1.9,1.264,7.595,3.796,9.491,2.532c1.9-1.264,5.063,1.896,8.227,1.896  c0,0,8.859-5.063,10.755,0.632s3.164,10.123,5.06,11.387c1.9,1.264,5.695,8.859,5.695,8.859s0.666,1.937,1.586,4.753  c3.583,0.972,8.661,2.711,11.697,5.374c1.488,1.305,2.629,2.659,3.609,3.994c3.575-4.772,12.049-15.471,17.909-17.916  c0,0,13.919,6.327,17.082,10.755l13.287,9.491c0,0,13.287-15.815,15.818-17.714c2.528-1.9,6.956-5.063,6.956-5.063  s6.327,6.959,10.755,10.755c3.485,2.984,2.685,5.183,6.787,5.987c11.454-0.097,24.603-2.816,30.354-3.568  c9.704-1.264,15.186-6.114,17.296-7.591c2.109-1.477,14.973-5.905,17.718-7.173c2.741-1.264,6.537-1.055,8.436-1.055  c1.896,0,9.278-3.799,13.496-5.482c4.218-1.687,10.968-7.382,12.232-7.169c1.264,0.209,2.528-0.423,3.373-0.845  c0.845-0.423,2.105-1.687,4.641-1.477c2.532,0.213,7.303,2.412,7.303,2.412l0.254,1.784c3.889,2.352,5.729,4.042,7.18,6.462  c1.9,3.164,7.595,15.186,12.023,18.35s5.692,4.431,10.123,5.063c0.565,0.079,1.713-0.43,3.272-1.376  C421.244,61.228,336.218,0,236.838,0z"/>
    <g>
	<path id="SVGCleanerId_0" style="fill:#27726C;" d="M323.888,323.825c-50.451-3.313-94.989-5.823-114.289-5.823   c-31.611,0-120.44,1.036-185.999,1.859c-2.842,0.251-5.606,0.49-8.321,0.718c3.751,9.917,8.111,19.532,13.103,28.761   c21.888,40.466,55.204,73.845,95.636,95.789c33.54,18.208,71.972,28.548,112.815,28.548c40.847,0,79.279-10.344,112.819-28.548   c40.432-21.948,73.748-55.323,95.636-95.789c1.601-2.958,3.13-5.957,4.603-8.99C405.964,336.18,346.348,329.763,323.888,323.825z"/>
</g>
    <g>
	<path id="SVGCleanerId_0_1_" style="fill:#27726C;" d="M323.888,323.825c-50.451-3.313-94.989-5.823-114.289-5.823   c-31.611,0-120.44,1.036-185.999,1.859c-2.842,0.251-5.606,0.49-8.321,0.718c3.751,9.917,8.111,19.532,13.103,28.761   c21.888,40.466,55.204,73.845,95.636,95.789c33.54,18.208,71.972,28.548,112.815,28.548c40.847,0,79.279-10.344,112.819-28.548   c40.432-21.948,73.748-55.323,95.636-95.789c1.601-2.958,3.13-5.957,4.603-8.99C405.964,336.18,346.348,329.763,323.888,323.825z"/>
</g>
    <g>
	<path id="SVGCleanerId_0_2_" style="fill:#27726C;" d="M323.888,323.825c-50.451-3.313-94.989-5.823-114.289-5.823   c-31.611,0-120.44,1.036-185.999,1.859c-2.842,0.251-5.606,0.49-8.321,0.718c3.751,9.917,8.111,19.532,13.103,28.761   c21.888,40.466,55.204,73.845,95.636,95.789c33.54,18.208,71.972,28.548,112.815,28.548c40.847,0,79.279-10.344,112.819-28.548   c40.432-21.948,73.748-55.323,95.636-95.789c1.601-2.958,3.13-5.957,4.603-8.99C405.964,336.18,346.348,329.763,323.888,323.825z"/>
</g>
    <g>
	<path id="SVGCleanerId_0_3_" style="fill:#27726C;" d="M323.888,323.825c-50.451-3.313-94.989-5.823-114.289-5.823   c-31.611,0-120.44,1.036-185.999,1.859c-2.842,0.251-5.606,0.49-8.321,0.718c3.751,9.917,8.111,19.532,13.103,28.761   c21.888,40.466,55.204,73.845,95.636,95.789c33.54,18.208,71.972,28.548,112.815,28.548c40.847,0,79.279-10.344,112.819-28.548   c40.432-21.948,73.748-55.323,95.636-95.789c1.601-2.958,3.13-5.957,4.603-8.99C405.964,336.18,346.348,329.763,323.888,323.825z"/>
</g>
    <g>
	<path id="SVGCleanerId_0_4_" style="fill:#27726C;" d="M323.888,323.825c-50.451-3.313-94.989-5.823-114.289-5.823   c-31.611,0-120.44,1.036-185.999,1.859c-2.842,0.251-5.606,0.49-8.321,0.718c3.751,9.917,8.111,19.532,13.103,28.761   c21.888,40.466,55.204,73.845,95.636,95.789c33.54,18.208,71.972,28.548,112.815,28.548c40.847,0,79.279-10.344,112.819-28.548   c40.432-21.948,73.748-55.323,95.636-95.789c1.601-2.958,3.13-5.957,4.603-8.99C405.964,336.18,346.348,329.763,323.888,323.825z"/>
</g>
    <g>
	<path style="fill:#27726C;" d="M315.912,320.848c-13.384-9.199-3.796-16.136-3.796-16.136c2.363-6.918-113.87-8.257-146.371-8.493   c-10.321,0.931-24.049,2.438-38.282,4.783c1.582,5.392,2.962,9.087,2.962,9.087l-4.716-0.396   c-10.946,1.174-61.909,6.612-102.105,10.168c65.558-0.823,154.388-1.859,185.999-1.859c19.3,0,63.838,2.505,114.289,5.823   C320.07,322.815,317.322,321.82,315.912,320.848z"/>
        <g>
		<path id="SVGCleanerId_1" style="fill:#27726C;" d="M315.912,320.848c-13.384-9.199-3.796-16.136-3.796-16.136    c2.363-6.918-113.87-8.257-146.371-8.493c-10.321,0.931-24.049,2.438-38.282,4.783c1.582,5.392,2.962,9.087,2.962,9.087    l-4.716-0.396c-10.946,1.174-61.909,6.612-102.105,10.168c65.558-0.823,154.388-1.859,185.999-1.859    c19.3,0,63.838,2.505,114.289,5.823C320.07,322.815,317.322,321.82,315.912,320.848z"/>
	</g>
        <g>
		<path id="SVGCleanerId_1_1_" style="fill:#27726C;" d="M315.912,320.848c-13.384-9.199-3.796-16.136-3.796-16.136    c2.363-6.918-113.87-8.257-146.371-8.493c-10.321,0.931-24.049,2.438-38.282,4.783c1.582,5.392,2.962,9.087,2.962,9.087    l-4.716-0.396c-10.946,1.174-61.909,6.612-102.105,10.168c65.558-0.823,154.388-1.859,185.999-1.859    c19.3,0,63.838,2.505,114.289,5.823C320.07,322.815,317.322,321.82,315.912,320.848z"/>
	</g>
        <g>
		<path id="SVGCleanerId_1_2_" style="fill:#27726C;" d="M315.912,320.848c-13.384-9.199-3.796-16.136-3.796-16.136    c2.363-6.918-113.87-8.257-146.371-8.493c-10.321,0.931-24.049,2.438-38.282,4.783c1.582,5.392,2.962,9.087,2.962,9.087    l-4.716-0.396c-10.946,1.174-61.909,6.612-102.105,10.168c65.558-0.823,154.388-1.859,185.999-1.859    c19.3,0,63.838,2.505,114.289,5.823C320.07,322.815,317.322,321.82,315.912,320.848z"/>
	</g>
</g>
    <g>
	<path id="SVGCleanerId_1_3_" style="fill:#1D5E58;" d="M315.912,320.848c-13.384-9.199-3.796-16.136-3.796-16.136   c2.363-6.918-113.87-8.257-146.371-8.493c-10.321,0.931-24.049,2.438-38.282,4.783c1.582,5.392,2.962,9.087,2.962,9.087   l-4.716-0.396c-10.946,1.174-61.909,6.612-102.105,10.168c65.558-0.823,154.388-1.859,185.999-1.859   c19.3,0,63.838,2.505,114.289,5.823C320.07,322.815,317.322,321.82,315.912,320.848z"/>
</g>
    <g>
	<path style="fill:#27726C;" d="M182.846,283.149c2.322,0.116,4.652,0.273,6.922,0.467c0.18-0.198,0.404-0.464,0.666-0.778   C187.902,282.966,185.367,283.067,182.846,283.149z"/>
        <g>
		<path id="SVGCleanerId_2" style="fill:#27726C;" d="M182.846,283.149c2.322,0.116,4.652,0.273,6.922,0.467    c0.18-0.198,0.404-0.464,0.666-0.778C187.902,282.966,185.367,283.067,182.846,283.149z"/>
	</g>
        <g>
		<path id="SVGCleanerId_2_1_" style="fill:#27726C;" d="M182.846,283.149c2.322,0.116,4.652,0.273,6.922,0.467    c0.18-0.198,0.404-0.464,0.666-0.778C187.902,282.966,185.367,283.067,182.846,283.149z"/>
	</g>
        <g>
		<path id="SVGCleanerId_2_2_" style="fill:#27726C;" d="M182.846,283.149c2.322,0.116,4.652,0.273,6.922,0.467    c0.18-0.198,0.404-0.464,0.666-0.778C187.902,282.966,185.367,283.067,182.846,283.149z"/>
	</g>
</g>
    <g>
	<path id="SVGCleanerId_2_3_" style="fill:#1D5E58;" d="M182.846,283.149c2.322,0.116,4.652,0.273,6.922,0.467   c0.18-0.198,0.404-0.464,0.666-0.778C187.902,282.966,185.367,283.067,182.846,283.149z"/>
</g>
    <g>
	<path style="fill:#8F8377;" d="M362.597,263.434c0.61,0.696,1.163,1.369,1.649,2.008c14.439-3.171,30.896-7.588,40.982-10.504   L362.597,263.434z"/>
        <path style="fill:#8F8377;" d="M327.205,313.253c0,0-5.063-8.859-2.532-15.186c0.718-1.795,1.642-3.253,2.595-4.465   c-10.901-0.123-47.451-0.497-57.646,0.037c-10.736,0.565-64.343,0.625-86.956,0.632c0.31,0.217,0.643,0.441,0.909,0.632   c0,0-7.06,0.344-17.83,1.316c32.501,0.239,148.734,1.578,146.371,8.493c0,0-9.585,6.937,3.796,16.136   c1.41,0.969,4.158,1.963,7.977,2.973c22.456,5.938,82.072,12.356,126.009,16.525c1.182-2.431,2.285-4.906,3.388-7.382   c0.755-1.705,1.529-3.399,2.247-5.12C409.465,326.125,342.953,322.138,327.205,313.253z"/>
</g>
    <g>
	<path style="fill:#FFFFFD;" d="M470.924,200.624c-1.529-0.157-2.528,0.583-1.357,2.532c1.081,1.799,1.761,4.013,2.487,6.279   C471.714,206.488,471.373,203.541,470.924,200.624z"/>
        <path style="fill:#FFFFFD;" d="M473.494,229.43c-0.037-1.286-0.037-2.58-0.097-3.859c-0.744,0.007-1.563-0.041-2.562-0.266   c-5.523-1.227-5.714-0.116-8.601-3.504c-0.09-0.105-0.161-0.176-0.258-0.292c-3.164-3.796-0.632-8.855-5.695-5.692   c-5.063,3.164-3.16,6.327-5.692,8.227c-2.528,1.896-3.164,5.06-6.959,6.959c-3.799,1.896-5.063,3.164-9.491,3.164   s-6.959,6.327-10.123,1.896c-3.164-4.431-1.264-6.324-5.695-5.695c-4.431,0.636,1.264-0.628-4.431,0.636   c-5.692,1.264-1.896,5.692-5.692,1.264c-3.796-4.431,0-3.167-3.796-4.431s-5.063-1.896-7.595,0.636   c-2.528,2.532,3.167,2.532-2.528,2.532c-5.692,0-9.491-1.264-12.023-3.799c-2.528-2.532-6.959-6.327-6.959-6.327l-6.959,6.959   c0,0-10.755,3.796-14.554,3.167c-3.799-0.636-8.227-1.264-11.387-5.695c-3.167-4.428-4.431-3.16-3.167-7.591   c1.264-4.431,0,0,1.264-4.431c1.268-4.431-2.528-3.796-2.528-3.796s-8.986,5.138-14.996,9.779c0.632,2.064,1.077,4.005,1.077,5.404   c0,3.646,0.654,12.195,1.021,16.701c6.649,3.022,12.651,5.441,14.794,5.441c4.237,0,15.358,8.582,21.817,15.583   c0.325,0.355,0.621,0.696,0.92,1.036l42.631-8.493c3.616-1.043,6.454-1.903,8.025-2.427c4.424-1.477,27.157-7.528,48.977-12.494   c3.874-0.883,7.722-1.731,11.432-2.513c0-0.224,0.015-0.441,0.015-0.666C473.681,234.355,473.568,231.895,473.494,229.43z"/>
</g>
    <path style="fill:#ACA6A6;" d="M472.054,209.439c-0.725-2.266-1.406-4.48-2.487-6.279c-1.17-1.948-0.168-2.692,1.358-2.532  c-0.471-3.081-1.047-6.129-1.638-9.169c-1.814-9.349-4.177-18.496-7.057-27.415c-1.754-5.437-3.713-10.781-5.841-16.043  c-1.559,0.946-2.711,1.458-3.272,1.376c-4.431-0.632-5.695-1.9-10.123-5.063c-4.431-3.164-10.123-15.186-12.023-18.35  c-1.451-2.42-3.291-4.106-7.18-6.462l0.696,4.861l-3.799,5.695c0,0-8.541,0-18.032,6.641c-9.495,6.645-9.495,8.545-9.495,8.545  s-12.337,9.491-16.133,12.341c-3.799,2.846-7.595,6.641-13.29,11.391c-5.695,4.746-15.19-2.85-15.19-2.85s-5.692-2.85-14.237-0.95  c-8.545,1.9,0,0-6.645,4.749c-6.645,4.746-17.086,1.896-17.086,1.896c-3.25-4.177-8.747-22.138-2.547-22.138  c0.213,0,0.434-0.015,0.647-0.019c-4.102-0.804-3.306-3.003-6.787-5.987c-4.428-3.796-10.755-10.755-10.755-10.755  s-4.428,3.164-6.956,5.063c-2.532,1.896-15.818,17.714-15.818,17.714l-13.287-9.491c3.164,4.428,1.9,15.186,6.327,20.878  c4.428,5.695,5.692,8.863,10.123,11.391c4.428,2.532,5.692,4.431,10.123,5.695c4.428,1.264,4.428,0,11.387,2.532  c6.963,2.532,10.123,5.063,13.919,5.063c3.799,0,5.695,2.532,7.591,5.695c0.355,0.591,0.703,1.331,1.043,2.113  c1.492,3.422,2.752,8.01,2.752,8.01s2.969,6.282,4.618,11.679c6.006-4.641,14.996-9.779,14.996-9.779s3.796-0.632,2.528,3.796  c-1.264,4.431,0,0-1.264,4.431c-1.264,4.431,0,3.164,3.167,7.591c3.164,4.431,7.591,5.063,11.387,5.695  c3.796,0.628,14.554-3.167,14.554-3.167l6.959-6.959c0,0,4.431,3.796,6.959,6.327c2.532,2.532,6.327,3.799,12.023,3.799  c5.695,0,0,0,2.528-2.532c2.532-2.532,3.799-1.9,7.595-0.636c3.796,1.264,0,0,3.796,4.431c3.799,4.428,0,0,5.692-1.264  c5.695-1.264,0,0,4.431-0.636c4.431-0.628,2.532,1.264,5.695,5.695c3.164,4.431,5.692-1.896,10.123-1.896  c4.431,0,5.692-1.264,9.491-3.164c3.796-1.9,4.431-5.063,6.959-6.959c2.532-1.896,0.632-5.063,5.692-8.227  c5.063-3.164,2.535,1.9,5.695,5.692c0.097,0.116,0.165,0.187,0.258,0.292c2.887,3.388,3.081,2.277,8.601,3.504  c0.998,0.224,1.817,0.273,2.562,0.266C473.142,220.138,472.667,214.768,472.054,209.439z"/>
    <path style="fill:#3C3B40;" d="M324.042,224.674c0-1.402-0.445-3.339-1.077-5.404c-1.649-5.396-4.618-11.679-4.618-11.679  s-1.26-4.592-2.752-8.01c-0.34-0.782-0.692-1.526-1.043-2.113c-1.896-3.164-3.796-5.695-7.591-5.695s-6.956-2.532-13.919-5.063  c-6.959-2.532-6.959-1.264-11.387-2.532c-4.431-1.264-5.695-3.164-10.123-5.695c-4.431-2.528-5.695-5.692-10.123-11.391  c-4.431-5.692-3.167-16.45-6.327-20.878c-3.164-4.431-17.082-10.755-17.082-10.755c-5.856,2.442-14.334,13.141-17.909,17.916  c2.341,3.194,3.654,6.241,5.886,8.029c3.164,2.532,11.387,7.591,11.387,7.591s8.227,5.063,10.755,8.223  c2.532,3.164,5.06,0.632,5.06,6.331c0,4.551,32.359,29.733,45.649,41.906c2.977,2.726,4.985,4.794,5.467,5.834  c4.443,2.259,13.04,6.574,20.773,10.086C324.696,236.865,324.042,228.32,324.042,224.674z"/>
    <g>
	<path style="fill:#797979;" d="M314.233,268.636h-0.912c0.31,0.037,0.632,0.079,0.954,0.116L314.233,268.636z"/>
        <path style="fill:#797979;" d="M362.597,263.434c-0.303-0.344-0.595-0.684-0.92-1.036c-6.458-7.001-17.58-15.583-21.817-15.583   c-2.143,0-8.145-2.42-14.794-5.441c-7.733-3.511-16.334-7.827-20.773-10.086c0.056,0.123,0.123,0.251,0.135,0.344   c0.202,1.421-1.163,2.513-3.104,3.347c-4.11,1.761-10.819,2.348-10.819,2.348L259.5,224.042l-5.187-2.797l-29.139-15.721   c0.987,2.016,2.304,4.566,3.627,7.244c0.299,0.314,0.471,0.699,0.509,1.025c2.027,4.14,3.934,8.388,4.454,11.092   c1.055,5.482,8.646,16.237,10.546,18.773c1.896,2.528,17.714,12.655,13.919,17.082c-0.853,0.995-2.158,2.296-3.695,3.713   c2.397-0.015,4.33-0.55,4.33-0.55s-6.327-3.796,6.959-3.796c13.287,0,17.718-1.264,24.045,0c6.327,1.264,12.019,5.695,15.186,6.959   c1.043,0.415,4.035,1.036,8.264,1.571h0.912l0.045,0.116c1.933,0.228,4.069,0.438,6.413,0.598c3.22,0.221,6.78,0.352,10.527,0.337   c5.063-0.019,10.471-0.325,15.893-1.051c0.744-0.101,1.492-0.191,2.236-0.307c4.372-0.684,9.499-1.702,14.898-2.887   C363.76,264.803,363.206,264.13,362.597,263.434z"/>
</g>
    <path style="fill:#686867;" d="M304.289,231.289c-0.482-1.04-2.491-3.108-5.467-5.834c-13.287-12.172-45.649-37.355-45.649-41.906  c0-5.695-2.528-3.167-5.06-6.331c-2.532-3.164-10.755-8.223-10.755-8.223s-8.223-5.063-11.387-7.591  c-2.233-1.788-3.541-4.835-5.886-8.029c-0.98-1.331-2.117-2.689-3.609-3.994c-3.04-2.659-8.115-4.401-11.697-5.374  c1.918,5.882,2.752,16.088,3.179,20.366c0.632,6.327,2.797,16.791,3.429,19.322c0.441,1.769,4.805,9.816,7.169,15.583  c1.021,2.491,1.608,3.96,2.18,5.299c0.273,0.639,4.005,0.049,4.446,0.95l29.139,15.721l5.187,2.797l31.005,13.287  c0,0,6.709-0.587,10.819-2.348c1.941-0.834,3.306-1.926,3.104-3.347C304.413,231.539,304.345,231.409,304.289,231.289z"/>
    <g>
	<path style="fill:#6D6D6C;" d="M137.175,131.663c-1.369-2.319-4.323-1.896-4.323-1.896c-0.535-1.384-0.954-2.143-1.286-2.756   c0.041,0.288,0.127,0.598,0.127,0.856c0,3.676,1.298,6.058,2.468,8.567C134.965,135.025,137.527,132.254,137.175,131.663z"/>
        <path style="fill:#6D6D6C;" d="M229.314,213.791c0.004,0.037,0.026,0.086,0.026,0.123c0,0.632,1.477,4.218,1.477,4.218l2.954,6.75   C233.252,222.179,231.341,217.931,229.314,213.791z"/>
        <path style="fill:#6D6D6C;" d="M191.59,276.766c-1.687-0.845-0.632,1.9-3.373-0.845c-2.741-2.741-3.586-2.319-3.796-5.06   c-0.079-1.002-0.325-1.679-0.632-2.225c-0.535-0.95-1.309-1.361-2.109-1.361c-1.264,0-6.537-0.632-6.537-0.632   s-15.4-13.074-18.986-14.341c-3.586-1.264-9.491-5.486-13.496-5.695c-4.009-0.209-4.431,0.632-6.959-0.209   c-0.52-0.172-1.679-1.013-3.171-2.244c3.983,4.446,9.285,12.449,10.59,24.483c0.079,0.744,0.108,1.537,0.157,2.311   c7.3,4.121,14.416,8.182,20.687,11.843c4.697-0.034,11.727,0,18.881,0.359c2.52-0.082,5.056-0.183,7.588-0.314   c0.108-0.131,0.187-0.221,0.31-0.374C193.276,279.298,193.28,277.611,191.59,276.766z"/>
        <path style="fill:#6D6D6C;" d="M244.318,243.656c-1.9-2.532-9.491-13.29-10.546-18.773l-4.637,2.951l-0.845,4.854v7.801   l-2.109,6.959c0,0-2.532,2.954-1.264,3.796c1.264,0.845,1.896,4.218,1.896,4.218s-0.209,2.322,2.741,3.586   c2.954,1.264,3.164,2.532,4.218,2.951c1.055,0.423,3.377,0,3.164,1.69c-0.209,1.687-1.477,3.373-1.477,3.373   s-0.729,0.875-1.907,1.571c-0.546,0.322-1.156,0.613-1.888,0.748c-2.319,0.423-0.845,1.477-4.637,0.632   c-3.62-0.804-3.063,0.838-5.74-1.38c-0.131-0.108-0.232-0.179-0.381-0.31c0,0-2.109-3.164-1.055-4.218   c1.055-1.055,3.582-1.687,4.009-3.373c0.419-1.687-1.477-4.218-1.477-5.909c0-1.687,2.532-8.859,3.373-11.178   c0.841-2.319,0.845-10.123,0.845-10.123l-2.322,2.741l-3.164-1.477c0,0-1.9,3.16-3.377,3.796c-1.477,0.632-2.741,4.005-4.85,4.218   c-2.109,0.209-4.431,0-7.591-1.9c-3.167-1.9-3.377-3.586-5.063-2.532c-1.687,1.055,2.109,3.373,1.055,3.796   c-1.055,0.423,1.264,3.164-3.164,1.477c-4.428-1.687-4.85-4.431-5.486-5.695c-0.636-1.264,0.845-0.423-2.951-0.423   c-3.796,0-2.532-0.209-5.909-0.209c-3.373,0-4.641,1.687-6.327,0.423c-1.687-1.268,1.264-4.009-2.741-1.9   c-4.009,2.109-4.009,3.164-5.482,4.009c-1.477,0.841-0.213,3.164-3.164,1.477c-2.954-1.69-3.377-1.055-4.85-2.954   c-1.473-1.9-4.428-4.641-4.428-4.641s-1.687-4.85-2.741-5.273c-1.055-0.423-0.845,1.69-3.373,0.845   c-2.532-0.845-4.85-1.055-6.118-1.9c-1.264-0.845-3.373-1.055-3.373-4.005c0-2.951,1.69-2.954-0.632-3.796   s-3.164-0.632-4.431-1.264c-1.264-0.632-2.741-1.058-2.741-1.058s-4.428,2.532-6.327,2.532s-5.063,0.213-3.799,3.164   c1.264,2.954,7.173,10.755,10.336,11.813c3.16,1.051,7.591,6.114,11.81,7.378c4.218,1.268,12.655,7.173,14.977,8.018   c2.319,0.841,24.042,9.278,24.042,9.278l14.973,4.428c0,0,3.164-1.896,6.114-1.051c2.954,0.845,2.322,0.632,5.063,1.896   c1.492,0.688,4.155,2.363,6.623,3.893c2.075,1.286,4.013,2.472,4.977,2.857c2.109,0.845,7.804,0.845,10.755,0.845   c2.954,0,5.905-0.209,4.005,2.532c-0.733,1.062-1.339,2.019-1.945,2.879c7.367-3.078,9.297-6.742,9.151-9.11   c-0.064-1.032-0.516-1.821-1.088-2.203c-1.021-0.681,0.179-1.713,2.072-2.337c1.63-0.539,3.766-0.778,5.523-0.194   c1.294,0.434,2.655,0.557,3.897,0.55c1.537-1.417,2.846-2.719,3.695-3.713C262.032,256.31,246.214,246.184,244.318,243.656z"/>
        <path style="fill:#6D6D6C;" d="M227.654,212.228c0.482,0,0.864,0.236,1.152,0.538c-1.324-2.674-2.64-5.228-3.627-7.244   c-0.445-0.905-0.838-1.724-1.111-2.363c-0.572-1.335-1.492-3.541-2.513-6.032c-2.363-5.766-5.269-13.081-5.71-14.85   c-0.632-2.528-5.063-12.019-5.695-18.346c-0.426-4.278-3.455-14.042-5.374-19.924c-0.92-2.812-1.586-4.753-1.586-4.753   s-3.799-7.595-5.695-8.859c-1.896-1.264-3.164-5.692-5.06-11.387c-1.9-5.695-10.755-0.632-10.755-0.632   c-3.164,0-6.327-3.16-8.227-1.896c-1.896,1.264-7.591-1.264-9.491-2.532c-1.896-1.268-6.956-0.636-8.855-0.636   s-11.391,6.959-11.391,6.959l-10.265,3.422l2.251,1.219c0,0-1.9-0.209,0.632,1.264c0,0,2.322,1.477,2.741,0   c0,0,1.687,0.423,2.319,0.845c0.632,0.423,2.741,1.055,3.373,1.268c0.632,0.209,0.849,1.264,0.632,2.105   c-0.213,0.845-0.213,3.796-0.213,3.796l2.109,2.322l2.532,2.319c0,0,6.118,0.423,5.909,1.9c-0.213,1.477-0.213,1.9-2.109,2.322   c-1.9,0.423-3.586,1.896-3.586,1.896s0.209,1.69,1.264,2.326c1.055,0.632,5.695,1.051,5.695,1.051l-2.532,2.532l-3.799,4.641   c0,0,2.322,3.164,3.586,6.114c1.264,2.954,5.695,11.178,7.169,13.919c1.477,2.741,4.009,6.75,5.695,7.804   c1.687,1.051,3.164,2.741,4.846,4.005c1.69,1.264,3.377,2.954,3.377,2.954s3.373,3.373,4.009,3.586   c0.632,0.209,10.755,0.209,10.755,0.209l-2.109,3.164c0,0,2.532,3.164,8.014,2.322l6.114,4.218c0,0-3.583,1.896-1.477,4.005   c2.105,2.109,6.537,4.854,6.537,4.854s6.118,2.528,6.118,1.051c0-1.473-3.373-1.896-1.268-2.528   c2.109-0.632,2.109-0.209,3.796,0.419c0.03,0.011,0.056,0.022,0.086,0.034c1.634,0.625,2.666,1.242,3.287,1.653   c0.632,0.419,4.85,4.431,6.118,3.164c1.264-1.264,2.105-2.741,2.105-2.741S226.599,212.228,227.654,212.228z"/>
</g>
    <path style="fill:#FFFFFD;" d="M91.833,81.676l-5.063-2.532l-3.799,0.632l-9.491,3.164l-7.591-1.264l-4.428,2.532l-4.431,5.695  l-10.123,6.327l17.714,1.264l0.636-4.428l9.491,1.9l8.223-6.959l5.695-0.632h7.595c0,0,0.43-0.856,1.092-1.87L91.833,81.676z"/>
    <path style="fill:#797979;" d="M38.682,121.749h-8.833c-0.404,0.725-0.845,1.429-1.242,2.158c2.139-0.415,4.162-0.894,6.066-0.894  C37.205,123.013,39.737,121.749,38.682,121.749z"/>
    <path style="fill:#FFFFFD;" d="M116.084,119.218c-0.632-0.213-6.114-1.055-7.382-1.055s-6.114,1.896-6.114,1.896l-6.327,2.532  c-0.632,1.264,5.063-0.209,8.436-1.055c3.373-0.841,3.796-1.477,4.641-1.264c0.845,0.213,5.905-0.213,7.378-0.841  C118.193,118.795,116.716,119.431,116.084,119.218z"/>
    <path style="fill:#272D17;" d="M462.234,240.021c-21.82,4.966-44.553,11.017-48.977,12.494c-1.571,0.524-4.409,1.384-8.025,2.427  c-10.089,2.913-26.547,7.333-40.982,10.504c-5.4,1.185-10.527,2.203-14.898,2.887c-0.744,0.116-1.492,0.206-2.236,0.307  c-5.419,0.725-10.83,1.028-15.893,1.051c-3.751,0.015-7.311-0.116-10.527-0.337c-2.341-0.161-4.48-0.37-6.413-0.598  c-0.322-0.037-0.643-0.079-0.954-0.116c-4.229-0.535-7.221-1.156-8.264-1.571c-3.164-1.264-8.859-5.695-15.186-6.959  s-10.755,0-24.045,0c-13.29,0-6.959,3.796-6.959,3.796s-1.933,0.539-4.33,0.55c-1.242,0.004-2.599-0.12-3.897-0.55  c-1.754-0.583-3.893-0.344-5.523,0.194c-1.892,0.625-3.093,1.657-2.072,2.337c0.572,0.381,1.025,1.171,1.088,2.203  c0.15,2.367-1.784,6.032-9.151,9.11c0,0,0,0.004-0.004,0.004c-0.049,0.019-0.108,0.052-0.157,0.067  c-10.755,4.431-24.677,8.223-39.864,6.327c-1.664-0.209-3.414-0.381-5.194-0.531c-2.27-0.194-4.6-0.348-6.922-0.467  c-7.158-0.359-14.184-0.393-18.881-0.359c0.239,0.138,0.471,0.277,0.707,0.415c-2.221-0.079-4.387-0.172-6.402-0.325l16.334,10.501  l1.384,0.89h6.686c22.613-0.007,76.22-0.067,86.956-0.632c10.194-0.535,46.745-0.161,57.646-0.037c2.405-3.059,5-4.39,5-4.39  s29.042-11.417,52.608-20.571c14.057-5.46,26.173-10.119,29.008-11.062c3.392-1.129,17.419-5.961,33.525-11.039  c4.832-1.522,9.843-3.063,14.82-4.536c3.863-1.144,7.7-2.247,11.402-3.261c0.004-0.411,0.03-0.819,0.03-1.234  C469.952,238.289,466.108,239.138,462.234,240.021z"/>
    <g>
	<path style="fill:#FFFFFD;" d="M107.857,126.603c-1.051-0.423-1.896-0.845-3.16-0.845c-1.264,0-3.373,0.845-3.373,0.845   s-2.532,1.264-4.009,1.687c-1.477,0.423-3.16,0.841-5.482,0.841c-2.319,0-2.741,1.055-4.85,1.69   c-2.109,0.632-1.9,0.209-2.954-0.213c-1.055-0.423-0.213-1.055-3.377-1.264c-3.16-0.213-5.269,1.264-6.537,1.264   c-1.264,0-4.218-0.213-5.273-0.213s-2.741,0-4.641-0.419c-1.9-0.423-3.164-1.466-4.428-1.687c-3.586-0.636-0.632,1.687,0,2.105   c0.632,0.423,3.373,1.69,4.641,2.109c1.268,0.419,4.005,1.264,6.327,1.264c2.319,0,2.109,0,4.85-0.423   c2.741-0.423,2.741-0.845,3.586-0.845c0.845,0,1.896,0.209,3.796,0.209c1.9,0,2.954-0.423,5.277-0.845c2.319-0.419,1.896,0,5.063,0   c3.16,0,2.319-0.841,3.796-1.477c1.477-0.632,2.109-1.055,4.85-1.687s2.528-0.423,4.005-0.423s2.954,0,3.796-0.423   C110.602,127.445,108.915,127.022,107.857,126.603z"/>
        <path style="fill:#FFFFFD;" d="M62.514,135.881c-1.687-0.845-6.114-2.741-7.382-2.954c-1.264-0.213-6.327-2.322-6.118-0.213   c0,0,13.496,5.277,14.764,6.541C65.046,140.522,64.201,136.726,62.514,135.881z"/>
</g>
    <path style="fill:#797979;" d="M149.198,185.442c-1.264-2.319,4.431-7.169,4.431-9.278s-1.9-4.431-2.741-6.75  c-0.845-2.322-2.109-3.799-3.164-6.118c-0.583-1.283-1.623-3.478-2.823-5.92c-0.348-0.621-0.666-1.256-0.942-1.911  c-0.703-1.402-1.429-2.835-2.139-4.188c-1.047-2.004-6.114-8.65-7.909-14.132c-0.045-0.138,0.075-0.4,0.251-0.711  c-1.17-2.509-2.468-4.891-2.468-8.567c0-0.262-0.086-0.572-0.127-0.856c-0.411-0.752-0.677-1.301-0.811-2.416  c-0.022-0.172-0.037-0.378-0.052-0.583c-1.78-4.181-5.336-8.799-5.336-8.799l-5.692-9.495c0,0-5.692-2.532-7.591-5.063  c-1.896-2.532-3.796-8.227-5.063-10.755c-1.268-2.532-2.532-6.327-5.063-7.595c-1.604-0.8-3.455,1.44-4.6,3.194  c-0.662,1.013-1.092,1.87-1.092,1.87h-7.595L82.974,88l-8.223,6.959l-9.491-1.9l-0.636,4.428l-17.714-1.264l-0.744,0.157  c-5.482,7.427-10.508,15.205-15.104,23.26c0.86,0.116,1.72,0.206,2.562,0.206c2.741,0,3.164-1.896,8.436-2.322  c5.277-0.419,7.386-0.632,7.386-0.632s2.951,0.423,5.273,1.69c2.319,1.264,2.319,1.264,5.063,1.687  c2.741,0.423,4.218,1.264,6.327,1.69c2.109,0.423,6.114,1.473,6.114,1.473s4.85,0.636,5.482,1.058c0.632,0.419,1.9,1.264,1.9,1.896  s0.632,1.055-1.055,1.055s-3.583,0.209-4.637-0.209c-1.055-0.423-3.377-1.055-5.695-1.896c-2.322-0.845-5.277-1.264-6.75-1.477  c-1.477-0.209-2.741-0.423-4.005-0.632c-1.268-0.213-2.109-1.055-3.377-0.423c-1.268,0.632-3.586,2.532-3.586,2.532  s-3.373,1.687-4.641,1.473c-1.264-0.209-8.433-1.687-8.433-1.687s-0.426,0.845-6.541,0.845c-1.32,0-2.367-0.067-3.242-0.161  c-2.894,5.437-5.576,11.006-8.048,16.686c6.836,9.125,14.252,19.102,21.742,29.296c5.097-0.258,37.886-1.04,59.919,19.019  c5.879,5.351,11.002,12.165,14.618,20.893c0,0-0.101,0.243-0.232,0.673c2.517-2.333,7.199-4.304,12.464-6.686  c6.537-2.954,9.704,1.477,10.968-3.796c1.264-5.273-1.264-6.537,1.477-6.327c2.741,0.209,4.637-1.055,5.273-3.164  c0.636-2.105,0.209-2.105,0.423-3.164c0.213-1.051,0-0.209,3.164-1.051C152.571,187.341,150.462,187.764,149.198,185.442z   M63.778,139.254c-1.264-1.264-14.764-6.541-14.764-6.541c-0.213-2.109,4.85,0,6.118,0.213c1.264,0.209,5.692,2.109,7.382,2.954  C64.205,136.726,65.046,140.522,63.778,139.254z M109.756,127.867c-0.845,0.423-2.322,0.423-3.796,0.423  c-1.477,0-1.264-0.213-4.005,0.423c-2.741,0.632-3.377,1.055-4.85,1.687c-1.477,0.632-0.632,1.477-3.796,1.477  c-3.167,0-2.745-0.419-5.063,0c-2.322,0.423-3.377,0.845-5.277,0.845c-1.896,0-2.951-0.209-3.796-0.209  c-0.845,0-0.845,0.423-3.586,0.845s-2.532,0.423-4.85,0.423c-2.322,0-5.063-0.845-6.327-1.264c-1.264-0.419-4.009-1.687-4.641-2.109  c-0.632-0.419-3.586-2.741,0-2.105c1.264,0.224,2.528,1.264,4.428,1.687c1.9,0.419,3.586,0.419,4.641,0.419s4.005,0.213,5.273,0.213  s3.377-1.477,6.537-1.264c3.164,0.213,2.322,0.841,3.377,1.264c1.055,0.423,0.845,0.845,2.954,0.213  c2.109-0.636,2.532-1.69,4.85-1.69c2.322,0,4.009-0.419,5.482-0.841c1.477-0.423,4.009-1.687,4.009-1.687s2.109-0.845,3.373-0.845  c1.264,0,2.109,0.419,3.16,0.845C108.915,127.022,110.602,127.445,109.756,127.867z M116.716,119.431  c-1.477,0.628-6.537,1.055-7.378,0.841c-0.845-0.213-1.268,0.423-4.641,1.264c-3.373,0.845-9.068,2.322-8.436,1.055l6.327-2.532  c0,0,4.846-1.896,6.114-1.896c1.264,0,6.75,0.845,7.382,1.055C116.716,119.427,118.193,118.795,116.716,119.431z"/>
    <g>
	<path style="fill:#FFFFFD;" d="M79.597,126.39c0-0.632-1.264-1.477-1.9-1.896c-0.632-0.423-5.482-1.058-5.482-1.058   s-4.005-1.051-6.114-1.473c-2.109-0.423-3.586-1.264-6.327-1.69c-2.741-0.423-2.741-0.423-5.063-1.687   c-2.322-1.264-5.273-1.69-5.273-1.69s-2.109,0.213-7.386,0.632c-5.273,0.423-5.695,2.322-8.436,2.322   c-0.841,0-1.698-0.09-2.562-0.206c-0.4,0.703-0.815,1.399-1.208,2.105h8.833c1.055,0-1.477,1.264-4.009,1.264   c-1.903,0-3.927,0.479-6.066,0.894c-0.337,0.625-0.639,1.271-0.972,1.9c0.875,0.093,1.922,0.161,3.242,0.161   c6.114,0,6.541-0.845,6.541-0.845s7.169,1.477,8.433,1.687c1.264,0.213,4.641-1.473,4.641-1.473s2.322-1.9,3.586-2.532   c1.264-0.632,2.109,0.209,3.377,0.423c1.264,0.209,2.528,0.423,4.005,0.632c1.473,0.213,4.428,0.632,6.75,1.477   c2.319,0.841,4.641,1.473,5.695,1.896c1.055,0.419,2.954,0.209,4.637,0.209C80.233,127.445,79.597,127.022,79.597,126.39z"/>
        <path style="fill:#FFFFFD;" d="M130.698,124.012c0.015,0.206,0.03,0.408,0.052,0.583l0.138-0.049   C130.818,124.367,130.777,124.195,130.698,124.012z"/>
        <path style="fill:#FFFFFD;" d="M130.893,124.547l-0.138,0.049c0.135,1.114,0.4,1.66,0.811,2.416   C131.454,126.244,131.233,125.422,130.893,124.547z"/>
        <path style="fill:#FFFFFD;" d="M232.927,272.338c-2.951,0-8.65,0-10.755-0.845c-0.961-0.385-2.902-1.571-4.977-2.857   c-2.468-1.529-5.134-3.205-6.623-3.893c-2.741-1.264-2.109-1.055-5.063-1.896c-2.951-0.845-6.114,1.051-6.114,1.051l-14.973-4.428   c0,0-21.727-8.436-24.042-9.278c-2.322-0.845-10.755-6.75-14.977-8.018c-4.218-1.264-8.65-6.327-11.81-7.378   c-3.164-1.055-9.072-8.859-10.336-11.813c-1.264-2.954,1.9-3.164,3.799-3.164s6.327-2.532,6.327-2.532s1.477,0.423,2.741,1.058   c1.264,0.632,2.109,0.419,4.431,1.264s0.632,0.845,0.632,3.796s2.109,3.164,3.373,4.005c1.264,0.845,3.583,1.055,6.118,1.9   c2.532,0.845,2.322-1.264,3.373-0.845c1.055,0.423,2.741,5.273,2.741,5.273s2.954,2.741,4.428,4.641   c1.473,1.9,1.9,1.264,4.85,2.954c2.954,1.687,1.687-0.632,3.164-1.477c1.477-0.845,1.477-1.9,5.482-4.009   c4.005-2.109,1.055,0.632,2.741,1.9c1.687,1.264,2.954-0.423,6.327-0.423c3.377,0,2.109,0.209,5.909,0.209   c3.799,0,2.319-0.845,2.951,0.423c0.632,1.268,1.058,4.009,5.486,5.695c4.428,1.687,2.109-1.055,3.164-1.477   c1.058-0.419-2.741-2.741-1.055-3.796c1.687-1.055,1.896,0.632,5.063,2.532c3.16,1.9,5.482,2.109,7.591,1.9   c2.109-0.213,3.373-3.586,4.85-4.218c1.477-0.632,3.377-3.796,3.377-3.796l3.164,1.477l2.322-2.741c0,0,0,7.804-0.845,10.123   s-3.373,9.495-3.373,11.178c0,1.687,1.896,4.218,1.477,5.909c-0.423,1.687-2.954,2.319-4.009,3.373   c-1.055,1.055,1.055,4.218,1.055,4.218c0.15,0.127,0.247,0.202,0.381,0.31c2.678,2.218,2.12,0.576,5.74,1.38   c3.796,0.845,2.319-0.209,4.637-0.632c0.733-0.135,1.343-0.426,1.888-0.748c1.178-0.696,1.907-1.571,1.907-1.571   s1.268-1.69,1.477-3.373c0.213-1.69-2.109-1.264-3.164-1.69c-1.055-0.419-1.264-1.687-4.218-2.951s-2.741-3.586-2.741-3.586   s-0.632-3.373-1.896-4.218c-1.264-0.841,1.264-3.796,1.264-3.796l2.109-6.959v-7.801l0.845-4.854l4.637-2.951l-2.954-6.75   c0,0-1.477-3.586-1.477-4.218c0-0.037-0.022-0.086-0.026-0.123c-0.168-0.348-0.337-0.684-0.509-1.025   c-0.288-0.303-0.669-0.538-1.152-0.538c-1.055,0-0.213,1.477-0.213,1.477s-0.845,1.477-2.105,2.741   c-1.268,1.268-5.486-2.741-6.118-3.164c-0.621-0.415-1.653-1.028-3.287-1.653c-0.03-0.011-0.056-0.022-0.086-0.034   c-1.687-0.628-1.687-1.051-3.796-0.419c-2.105,0.632,1.268,1.055,1.268,2.528c0,1.477-6.118-1.051-6.118-1.051   s-4.428-2.745-6.537-4.854s1.477-4.005,1.477-4.005l-6.114-4.218c-5.482,0.845-8.014-2.322-8.014-2.322l2.109-3.164   c0,0-10.127,0-10.755-0.209c-0.632-0.213-4.009-3.586-4.009-3.586s-1.687-1.687-3.377-2.954c-1.687-1.264-3.16-2.954-4.846-4.005   c-1.687-1.058-4.218-5.063-5.695-7.804s-5.905-10.964-7.169-13.919s-3.586-6.114-3.586-6.114l3.799-4.641l2.532-2.532   c0,0-4.641-0.419-5.695-1.051c-1.055-0.632-1.264-2.326-1.264-2.326s1.687-1.473,3.586-1.896c1.896-0.423,1.896-0.845,2.109-2.322   c0.209-1.477-5.909-1.9-5.909-1.9l-2.532-2.319l-2.109-2.322c0,0,0-2.951,0.213-3.796c0.213-0.841,0-1.896-0.632-2.105   c-0.628-0.213-2.737-0.845-3.373-1.268c-0.632-0.419-2.319-0.845-2.319-0.845c-0.423,1.477-2.741,0-2.741,0   c-2.532-1.477-0.632-1.264-0.632-1.264l-2.274-1.231l-2.812-1.522c0,0.763,0.022,1.335,0.06,1.84   c0.079,0.183,0.12,0.355,0.191,0.535c0.34,0.875,0.561,1.698,0.673,2.461c0.333,0.613,0.755,1.372,1.286,2.756   c0,0,2.954-0.423,4.323,1.896c0.352,0.591-2.21,3.366-3.014,4.772c-0.176,0.31-0.299,0.576-0.251,0.711   c1.791,5.482,6.858,12.127,7.909,14.132c0.711,1.354,1.436,2.786,2.139,4.188c0.322,0.647,0.636,1.286,0.942,1.911   c1.2,2.446,2.24,4.637,2.823,5.92c1.055,2.319,2.319,3.796,3.164,6.118c0.845,2.319,2.741,4.641,2.741,6.75   c0,2.105-5.695,6.959-4.431,9.278c1.264,2.322,3.373,1.896,0.209,2.745c-3.164,0.841-2.951,0-3.164,1.051   c-0.213,1.055,0.213,1.055-0.423,3.164c-0.632,2.109-2.532,3.373-5.273,3.164s-0.209,1.055-1.477,6.327   c-1.264,5.273-4.431,0.845-10.968,3.796c-5.269,2.378-9.947,4.353-12.464,6.686c-0.284,0.942-0.703,2.861-0.497,5.572   c0.385,5.063,2.965,12.838,12.752,21.914c0,0,2.038,1.395,4.637,4.293c1.492,1.23,2.648,2.072,3.171,2.244   c2.528,0.841,2.951,0,6.959,0.209c4.005,0.209,9.91,4.431,13.496,5.695c3.586,1.268,18.986,14.341,18.986,14.341   s5.269,0.632,6.537,0.632c0.804,0,1.578,0.411,2.109,1.361c0.307,0.546,0.553,1.223,0.632,2.225   c0.209,2.741,1.055,2.319,3.796,5.06c2.741,2.745,1.687,0,3.373,0.845c1.69,0.845,1.687,2.532-0.845,5.695   c-0.123,0.157-0.206,0.243-0.31,0.374c-0.262,0.314-0.486,0.58-0.666,0.778c1.78,0.15,3.53,0.322,5.194,0.531   c15.186,1.896,29.105-1.896,39.864-6.327c0.06-0.022,0.105-0.049,0.161-0.075c0.606-0.86,1.212-1.817,1.945-2.879   C238.832,272.129,235.881,272.338,232.927,272.338z"/>
</g>
    <path style="fill:#333534;" d="M143.121,268.636c-1.305-12.034-6.608-20.037-10.59-24.483c-2.595-2.898-4.637-4.293-4.637-4.293  c-9.783-9.076-12.367-16.847-12.752-21.914c-0.206-2.711,0.213-4.626,0.497-5.572c0.131-0.43,0.232-0.673,0.232-0.673  c-3.616-8.728-8.739-15.542-14.618-20.893c-22.037-20.059-54.822-19.278-59.919-19.019c3.605,4.906,4.424,11.028,8.003,15.957  c11.881,16.368,22.666,36.334,31.476,49.549c0,0,6.6,3.025,9.973,10.284c4.375,2.39,15.878,2.977,26.162,8.668  c6.926,3.829,14.592,8.1,22.232,12.393c1.372,0.77,2.737,1.541,4.102,2.311C143.229,270.177,143.203,269.38,143.121,268.636z"/>
    <path style="fill:#354C3C;" d="M182.667,294.271c-2.704,0-24.401-11.387-24.401-11.387s2.21-0.064,5.695-0.09  c-6.271-3.661-13.391-7.722-20.687-11.843c-1.365-0.77-2.73-1.541-4.102-2.311c-7.64-4.293-15.306-8.564-22.232-12.393  c-10.284-5.692-18.885-10.4-23.26-12.789c0.228,0.486,0.479,0.946,0.677,1.466c0,0,0.606,1.81,1.627,4.641  c1.687,4.667,4.521,12.131,7.748,19.076c0.86,1.855,1.746,3.672,2.648,5.385c6.327,12.023,18.35,17.086,20.246,24.045  c0.28,1.028,0.557,2.001,0.834,2.936c14.233-2.341,27.961-3.852,38.282-4.783c10.77-0.972,17.83-1.316,17.83-1.316  C183.31,294.712,182.981,294.488,182.667,294.271z"/>
    <path style="fill:#090909;" d="M127.463,301.002c-0.277-0.935-0.553-1.907-0.834-2.936c-1.896-6.956-13.919-12.023-20.246-24.045  c-0.901-1.713-1.788-3.53-2.648-5.385c-3.224-6.944-6.062-14.412-7.748-19.076c-1.021-2.831-1.627-4.641-1.627-4.641  c-0.198-0.52-0.449-0.976-0.677-1.466c-3.369-7.259-9.442-11.189-9.442-11.189c-8.81-13.216-20.224-29.329-32.104-45.698  c-3.579-4.929-7.195-9.88-10.804-14.783c-7.49-10.194-14.91-20.171-21.742-29.296c-0.393,0.905-0.808,1.791-1.189,2.704  c-11.11,26.446-17.494,55.349-18.249,85.655l60.402,42.908l54.848,31.162l12.494,4.54l2.528,0.632  C130.425,310.089,129.045,306.395,127.463,301.002z"/>
    <g>
	<path style="fill:#1E201F;" d="M15.044,319.969c0.079,0.206,0.161,0.408,0.239,0.613c2.715-0.232,5.478-0.467,8.321-0.718   C20.702,319.898,17.845,319.932,15.044,319.969z"/>
        <path style="fill:#1E201F;" d="M117.142,302.838l-9.917-6.103l-45.66-28.099L0.153,230.848C0.105,232.848,0,234.83,0,236.842   c0,10.789,0.789,21.39,2.184,31.794c1.429,10.647,3.56,21.061,6.354,31.211c1.881,6.832,4.035,13.552,6.499,20.119   c2.805-0.034,5.662-0.071,8.564-0.108c40.197-3.556,91.16-8.99,102.105-10.168c1.384-0.15,2.184-0.236,2.184-0.236L117.142,302.838   z"/>
</g>
    <g>
	<path style="fill:#272D17;" d="M234.827,277.82c0.049-0.015,0.108-0.049,0.157-0.067l0.004-0.004   C234.931,277.772,234.886,277.798,234.827,277.82z"/>
        <path style="fill:#272D17;" d="M163.965,282.794c-3.485,0.026-5.695,0.09-5.695,0.09c2.016,0.153,4.181,0.247,6.402,0.325   C164.437,283.067,164.205,282.932,163.965,282.794z"/>
</g>
    <g>
	<path style="fill:#2F381C;" d="M328.185,293.613c1.395,0.015,2.184,0.026,2.184,0.026S329.434,293.123,328.185,293.613z"/>
        <path style="fill:#2F381C;" d="M462.234,241.999c-4.977,1.473-9.988,2.053-14.82,3.579c-16.106,5.075-30.133,9.906-33.525,11.039   c-2.838,0.946-14.951,5.602-29.008,11.062c-23.571,9.154-52.608,21.532-52.608,21.532s-2.595,1.328-5,4.39   c-0.561,0.714-1.096,1.552-1.604,2.457c-0.337,0.557-0.669,1.2-0.991,2.012c-2.532,6.327,2.532,15.186,2.532,15.186   c15.747,8.881,82.259,12.872,128.331,14.596c2.479-5.95,4.701-12.03,6.698-18.212c4.259-13.197,7.371-26.902,9.263-40.997   c1.2-8.956,1.9-18.07,2.072-27.314c0.015-0.864,0.06-1.72,0.067-2.584C469.93,239.752,466.093,240.855,462.234,241.999z"/>
</g>
    <path style="fill:#FFFFFD;" d="M423.791,119.509l-0.254-1.784c0,0-4.772-2.199-7.303-2.412c-2.532-0.209-3.796,1.055-4.641,1.477  c-0.845,0.419-2.105,1.055-3.373,0.845c-1.264-0.213-8.014,5.482-12.232,7.169c-4.218,1.687-11.6,5.482-13.496,5.482  c-1.9,0-5.695-0.209-8.436,1.055c-2.745,1.268-15.609,5.695-17.718,7.172c-2.109,1.477-7.591,6.327-17.296,7.591  c-5.755,0.752-18.9,3.47-30.354,3.568c-0.213,0-0.438,0.019-0.647,0.019c-6.2,0-0.703,17.961,2.547,22.138  c0,0,10.441,2.846,17.086-1.896c6.645-4.749-1.9-2.85,6.645-4.749c8.541-1.9,14.237,0.95,14.237,0.95s9.495,7.595,15.19,2.85  c5.692-4.749,9.491-8.545,13.29-11.391c3.796-2.85,16.133-12.341,16.133-12.341s0-1.896,9.495-8.545  c9.495-6.641,18.032-6.641,18.032-6.641l3.799-5.695L423.791,119.509z"/>
</svg>
